<mxfile host="65bd71144e">
    <diagram id="fEH0jCM9jVXo35o1cyl-" name="Page-1">
        <mxGraphModel dx="1954" dy="825" grid="1" gridSize="10" guides="1" tooltips="1" connect="1" arrows="1" fold="1" page="1" pageScale="1" pageWidth="850" pageHeight="1100" math="0" shadow="0">
            <root>
                <mxCell id="0"/>
                <mxCell id="1" parent="0"/>
                <mxCell id="9" value="" style="image;html=1;image=img/lib/clip_art/computers/Network_128x128.png" parent="1" vertex="1">
                    <mxGeometry x="-110" y="440" width="130" height="130" as="geometry"/>
                </mxCell>
                <mxCell id="99" style="edgeStyle=none;html=1;exitX=1;exitY=0.5;exitDx=0;exitDy=0;" edge="1" parent="1" source="29" target="100">
                    <mxGeometry relative="1" as="geometry">
                        <mxPoint x="190" y="200" as="targetPoint"/>
                    </mxGeometry>
                </mxCell>
                <mxCell id="29" value="&lt;font style=&quot;font-size: 18px;&quot;&gt;Ether&lt;/font&gt;" style="rounded=1;whiteSpace=wrap;html=1;fontFamily=Consolas;fillColor=#a20025;fontColor=#ffffff;strokeColor=#6F0000;" parent="1" vertex="1">
                    <mxGeometry x="-120" y="230" width="190" height="60" as="geometry"/>
                </mxCell>
                <mxCell id="39" value="&lt;font style=&quot;&quot;&gt;&lt;span style=&quot;font-size: 18px;&quot;&gt;IP&lt;br&gt;&lt;/span&gt;&lt;/font&gt;&lt;span style=&quot;font-size: 11px;&quot;&gt;ttl=?&lt;/span&gt;" style="rounded=1;whiteSpace=wrap;html=1;fontFamily=Consolas;fillColor=#60a917;fontColor=#ffffff;strokeColor=#2D7600;" parent="1" vertex="1">
                    <mxGeometry x="-110" y="170" width="170" height="60" as="geometry"/>
                </mxCell>
                <mxCell id="75" value="OS-ID" style="rounded=1;whiteSpace=wrap;html=1;fontFamily=Consolas;fillColor=#030303;fontColor=#ffffff;strokeColor=#005700;gradientColor=none;gradientDirection=radial;fontSize=19;" parent="1" vertex="1">
                    <mxGeometry x="150" y="360" width="300" height="90" as="geometry"/>
                </mxCell>
                <mxCell id="98" style="edgeStyle=none;html=1;startArrow=none;" edge="1" parent="1" source="9" target="29">
                    <mxGeometry relative="1" as="geometry">
                        <mxPoint x="-278.97058823529414" y="225" as="sourcePoint"/>
                        <mxPoint x="-370" y="400" as="targetPoint"/>
                    </mxGeometry>
                </mxCell>
                <mxCell id="101" style="edgeStyle=none;html=1;exitX=0.5;exitY=1;exitDx=0;exitDy=0;fontFamily=Consolas;fontSize=28;" edge="1" parent="1" source="100" target="75">
                    <mxGeometry relative="1" as="geometry"/>
                </mxCell>
                <mxCell id="100" value="Packet Sniffer" style="rounded=1;whiteSpace=wrap;html=1;fillColor=#6a00ff;strokeColor=#3700CC;fontColor=#ffffff;fontFamily=Consolas;fontSize=28;" vertex="1" parent="1">
                    <mxGeometry x="205" y="122.5" width="190" height="155" as="geometry"/>
                </mxCell>
                <mxCell id="102" style="edgeStyle=none;html=1;fontFamily=Consolas;fontSize=28;startArrow=none;" edge="1" parent="1" source="104" target="106">
                    <mxGeometry relative="1" as="geometry">
                        <mxPoint x="305" y="287.5" as="sourcePoint"/>
                        <mxPoint x="300" y="600" as="targetPoint"/>
                    </mxGeometry>
                </mxCell>
                <mxCell id="105" value="" style="edgeStyle=none;html=1;fontFamily=Consolas;fontSize=28;endArrow=none;" edge="1" parent="1" source="75" target="104">
                    <mxGeometry relative="1" as="geometry">
                        <mxPoint x="300" y="450" as="sourcePoint"/>
                        <mxPoint x="300" y="600" as="targetPoint"/>
                    </mxGeometry>
                </mxCell>
                <mxCell id="104" value="OS" style="rounded=1;whiteSpace=wrap;html=1;fillColor=#008a00;strokeColor=#005700;fontColor=#ffffff;fontFamily=Consolas;fontSize=28;" vertex="1" parent="1">
                    <mxGeometry x="270" y="505" width="60" height="45" as="geometry"/>
                </mxCell>
                <mxCell id="106" value="Special Information" style="shape=datastore;whiteSpace=wrap;html=1;strokeWidth=2;fontFamily=Consolas;fontSize=32;gradientDirection=radial;fillColor=#C056F5;" vertex="1" parent="1">
                    <mxGeometry x="195" y="610" width="210" height="180" as="geometry"/>
                </mxCell>
            </root>
        </mxGraphModel>
    </diagram>
</mxfile>
